<?xml version="1.0" encoding="utf-8"?>
<!-- Generator: Adobe Illustrator 16.0.0, SVG Export Plug-In . SVG Version: 6.00 Build 0)  -->
<!DOCTYPE svg PUBLIC "-//W3C//DTD SVG 1.1//EN" "http://www.w3.org/Graphics/SVG/1.1/DTD/svg11.dtd">
<svg version="1.1" id="Layer_1" xmlns="http://www.w3.org/2000/svg" xmlns:xlink="http://www.w3.org/1999/xlink" x="0px" y="0px"
	 width="960px" height="560px" viewBox="0 0 960 560" enable-background="new 0 0 960 560" xml:space="preserve">
<g id="v73VDn_1_">
	<g>
		<path fill-rule="evenodd" clip-rule="evenodd" d="M659.572,325.801c19.28,13.172,29.396,30.452,32.843,51.521
			c8.763,53.563-41.847,79.529-77.288,67.855c-5.031-1.658-9.713-3.319-11.043-9.326c-0.293-1.322-1.454-2.452-2.629-3.604
			c2.421,15.829-1.382,30.058-10.245,42.959c-8.86,12.896-21.03,21.226-36.298,24.676c-15.953,3.604-31.161,1.037-45.342-6.918
			c-14.256-7.997-23.454-20.264-28.693-37.042c-5.458,17.456-15.213,30.048-30.305,37.931c-15.051,7.86-30.964,9.819-47.448,5.103
			c-28.287-8.095-46.812-36.741-44.623-67.963c-1.184,2.699-2.131,5.539-3.631,8.049c-1.09,1.825-2.615,3.947-4.45,4.688
			c-36.063,14.553-86.132-10.57-81.794-60.362c1.71-19.627,8.544-36.924,25.427-48.781c2.289-1.607,4.81-2.886,7.218-4.313
			c-0.152-0.381-0.294-0.892-0.361-0.882c-11.751,1.709-19.402-5.421-26.619-12.812c-17.236-17.653-20.347-46.723-7.625-68.025
			c12.771-21.385,40.242-33.051,63.299-26.426c5.818,1.672,11.208,4.833,16.124,7.011c-15.379-70.552,6.957-126.118,71.683-160.267
			c50.854-26.83,102.402-21.322,148.046,13.475c49.088,37.423,64.163,88.056,49.158,147.876c7.546-4.965,15.753-8.926,25.334-9.664
			c25.372-1.956,49.755,12.953,58.786,36.251c9.092,23.456,1.471,50.642-18.385,66c-4.631,3.582-9.192,6.499-15.35,3.693
			C664.084,325.922,662.452,326.119,659.572,325.801z M397.177,241.664c9.621,0.002,18.331,2.161,25.515,8.634
			c7.215,6.501,9.55,15.141,10.163,25.301c5.074-4.616,6.824-9.271,5.561-14.977c-1.495-6.754-5.793-11.617-11.251-15.348
			c-5.347-3.655-11.447-6.271-16.538-10.218c-5.575-4.322-11.377-8.961-15.283-14.688c-6.43-9.427-2.582-20.484,7.661-25.575
			c6.159-3.061,12.693-4.094,19.428-2.706c2.574,0.531,4.975,1.903,7.454,2.892c-2.684,1.633-5.121,1.943-7.473,2.571
			c-2.559,0.684-5.188,1.37-7.525,2.565c-7.626,3.898-8.999,11.456-2.497,16.882c5.173,4.318,11.166,7.771,17.121,11.009
			c7.881,4.285,14.903,9.483,20.327,16.634c14.52,19.141,6.823,44.736-16.146,51.272c-23.263,6.62-43.77-0.097-61.154-16.358
			c-7.284-6.813-13.747-14.497-20.777-21.593c-10.867-10.967-24.024-15.816-39.457-13.96c-15.856,1.907-27.753,15.617-28.302,32.486
			c-0.532,16.33,10.334,30.37,25.981,33.168c8.477,1.517,15.958-0.645,21.375-7.721c6.968-9.104,2.112-21.774-8.984-23.579
			c-5.629-0.916-9.946,1.76-13.846,5.468c-1.665,1.583-3.543,2.942-5.983,4.942c1.731-19.242,16.685-26.397,31.565-20.484
			c21.445,8.522,26.228,36.084,8.877,52.848c-6.432,6.214-13.87,11.408-21.003,16.867c-10.865,8.315-20.623,17.65-25.385,30.787
			c-5.068,13.981-4.492,27.552,5.811,39.395c9.34,10.736,21.101,14.64,35.041,11.712c12.102-2.542,21.391-11.166,23.218-21.401
			c1.464-8.203-2.325-17.169-8.588-20.321c-6.995-3.521-15.537-2.099-21.254,4.674c-3.077,3.645-4.67,8.558-6.827,12.951
			c-0.56,1.14-0.72,2.476-1.063,3.721c-0.423,0.123-0.846,0.245-1.269,0.367c-1.197-2.367-2.813-4.616-3.517-7.122
			c-2.786-9.929,2.967-22.938,12.893-29.78c13.282-9.158,33.036-5.052,44.034,9.059c7.689,9.865,9.328,21.51,9.875,33.418
			c0.55,11.956-0.092,24.028,1.302,35.872c2.363,20.066,14.785,31.216,34.352,32.496c15.653,1.024,30.124-9.623,34.986-25.775
			c2.497-8.291,2.047-16.278-3.62-23.162c-4.403-5.349-10.041-9.058-17.392-7.739c-6.562,1.178-11.208,5.321-13.216,11.63
			c-2.546,7.999-1.814,15.502,5.274,21.295c0.795,0.649,1.345,1.598,2.758,3.321c-7.905,0.074-13.288-2.668-17.333-7.921
			c-7.789-10.115-6.694-27.24,2.139-36.487c13.808-14.454,36.902-15.424,51.984-2.239c6.913,6.043,11.508,13.564,14.574,23.221
			c1.015-2.541,1.661-4.175,2.319-5.803c7.595-18.773,24.517-28.973,43.452-26.191c23.012,3.379,35.173,25.786,24.57,45.272
			c-3.751,6.892-11.756,11.045-18.176,9.182c0.848-0.921,1.551-1.792,2.361-2.548c6.465-6.034,8.18-15.312,4.268-23.23
			c-4.756-9.622-15.551-12.511-24.469-6.546c-9.008,6.025-12.266,15.8-9.097,27.288c4.153,15.057,17.813,26.379,31.977,26.504
			c18.703,0.166,31.723-8.847,36.033-26.091c1.915-7.66,2.349-15.754,2.837-23.689c0.47-7.622-0.244-15.318,0.259-22.936
			c0.661-10.028,2.49-19.887,8.859-28.166c8.347-10.852,19.398-16.452,33.064-14.598c12.665,1.717,20.14,10.242,24.214,21.909
			c2.615,7.488,0.907,15.333-4.419,19.525c-0.416-1.825-0.818-3.351-1.108-4.898c-1.235-6.597-4.88-11.643-10.286-15.366
			c-10.313-7.104-22.907-2.312-25.827,9.805c-2.252,9.345,0.617,17.143,7.888,23.224c19.981,16.712,51.232,6.694,57.47-18.653
			c3.586-14.578-0.192-28.085-9.982-39.104c-7.004-7.883-15.59-14.371-23.542-21.4c-5.603-4.952-11.879-9.263-16.891-14.742
			c-13.548-14.813-10.24-37.872,6.433-48.102c9.533-5.849,20.586-5.749,28.098,0.254c5.056,4.039,8.781,12.792,7.133,17.304
			c-2.979-2.514-5.723-5.184-8.815-7.354c-5.263-3.693-11.221-3.502-16.325,0.116c-4.854,3.439-6.896,9.449-5.264,15.49
			c2.051,7.592,9.441,13.217,17.838,13.577c14.547,0.623,28.412-10.389,31.37-24.916c3.385-16.621-4.934-33.593-19.726-38.929
			c-15.539-5.606-30.09-2.578-42.591,7.814c-7.381,6.136-13.815,13.467-20.333,20.576c-15.352,16.744-34.025,25.471-56.904,23.403
			c-13.035-1.179-24.703-6.035-29.981-19.079c-5.188-12.822-3.608-25.585,6.052-35.874c5.473-5.828,12.514-10.24,19.08-14.967
			c5.641-4.061,12.021-7.173,17.32-11.607c5.498-4.6,4.594-11.821-1.695-15.382c-3.662-2.073-8.078-2.824-12.174-4.108
			c-1.266-0.397-2.596-0.591-5.08-1.14c9.266-5.741,17.615-5.123,25.95-1.791c12.361,4.941,16.39,17.414,8.496,28.119
			c-3.659,4.962-8.845,8.973-13.864,12.709c-4.777,3.556-10.361,6.002-15.365,9.281c-5.807,3.805-10.666,8.566-12.635,15.555
			c-1.789,6.349,0.242,11.963,5.306,14.875c1.18-25.123,20.342-33.769,36.494-32.812c-10.155,7.822-20.507,14.844-24.31,28.928
			c10.822-3.151,16.426-10.829,22.892-17.438c-0.105,15.52-9.647,22.417-23.22,25.905c2.109,0.454,4.004,0.676,5.831,0.42
			c18.771-2.631,31.058-14.188,40.247-29.731c9.727-16.457,12.67-34.597,11.984-53.359c-1.61-44.04-19.801-79.003-58.029-102.093
			c-47.13-28.467-109.728-19.042-146.602,21.679c-24.479,27.033-33.329,59.298-30.795,95.083
			c1.289,18.194,7.098,34.841,18.807,49.105c7.139,8.697,15.861,15.234,26.887,18.113c3.716,0.97,7.652,1.098,11.488,1.609
			c-16.326-6.249-25.979-17.158-22.302-27.019c6.387,6.732,11.531,14.966,22.52,17.41
			C416.788,256.602,406.636,249.537,397.177,241.664z"/>
	</g>
</g>
</svg>
